<svg width="45" height="48" viewBox="0 0 45 48" fill="none" xmlns="http://www.w3.org/2000/svg">
<path d="M20.5804 1.00134L0.797665 21.6739C-0.265888 22.7853 -0.265888 24.5804 0.797665 25.6918L20.5804 46.3643C21.644 47.4757 23.3618 47.4757 24.4253 46.3643L32.72 37.6966C33.6725 36.7013 33.6725 35.0875 32.72 34.0922C31.7675 33.0969 30.2232 33.0969 29.2707 34.0922L22.9826 40.6631C22.7179 40.9397 22.3161 40.9397 22.0514 40.6631L6.25347 24.1546C5.98876 23.878 5.98876 23.4581 6.25347 23.1815L22.0514 6.67301C22.3161 6.39639 22.7179 6.39639 22.9826 6.67301L29.2707 13.2439C30.2232 14.2393 31.7675 14.2393 32.72 13.2439C33.6725 12.2486 33.6725 10.6348 32.72 9.63952L24.4263 0.972753C23.3583 -0.114587 21.6399 -0.105785 20.5804 1.00134Z" fill="#F64702"/>
<path d="M20.5804 1.00134L0.797665 21.6739C-0.265888 22.7853 -0.265888 24.5804 0.797665 25.6918L20.5804 46.3643C21.644 47.4757 23.3618 47.4757 24.4253 46.3643L32.72 37.6966C33.6725 36.7013 33.6725 35.0875 32.72 34.0922C31.7675 33.0969 30.2232 33.0969 29.2707 34.0922L22.9826 40.6631C22.7179 40.9397 22.3161 40.9397 22.0514 40.6631L6.25347 24.1546C5.98876 23.878 5.98876 23.4581 6.25347 23.1815L22.0514 6.67301C22.7105 6.07873 23.786 4.87502 25.3653 4.59349C26.539 4.38427 27.8222 4.84477 29.2149 5.975C28.2838 5.00203 26.6876 3.33462 24.4263 0.972752C23.3583 -0.114587 21.6399 -0.105785 20.5804 1.00134Z" fill="#303457"/>
<path d="M34.6342 32.1697C35.5867 33.165 37.131 33.165 38.0834 32.1697L44.202 25.7759C45.2655 24.6645 45.2655 22.8694 44.2021 21.7582L38.0302 15.3316C37.0755 14.3374 35.5307 14.3389 34.5776 15.3348C33.6252 16.3301 33.6252 17.9439 34.5776 18.9392L38.7462 23.2952C39.0109 23.5718 39.0109 23.9917 38.7462 24.2683L34.6342 28.5652C33.6817 29.5606 33.6817 31.1743 34.6342 32.1697Z" fill="#F64702"/>
<path d="M22.6011 29.3683C25.551 29.3683 27.9424 26.8693 27.9424 23.7867C27.9424 20.704 25.551 18.2051 22.6011 18.2051C19.6512 18.2051 17.2598 20.704 17.2598 23.7867C17.2598 26.8693 19.6512 29.3683 22.6011 29.3683Z" fill="#F64702"/>
</svg>
